<svg width="60" height="60" viewBox="0 0 60 60" fill="none" xmlns="http://www.w3.org/2000/svg">
<g id="folder-image">
<path id="Icon" d="M34.034 38.3682L44.6627 27.4414L52.5 34.9609M17.4121 47.5L29.9219 34.9414L44.9316 47.4999M24.9219 24.9414C24.9219 27.7028 22.6833 29.9414 19.9219 29.9414C17.1605 29.9414 14.9219 27.7028 14.9219 24.9414C14.9219 22.18 17.1605 19.9414 19.9219 19.9414C22.6833 19.9414 24.9219 22.18 24.9219 24.9414ZM30.1569 15.1569L29.8431 14.8431C28.9784 13.9784 28.546 13.546 28.0414 13.2368C27.5941 12.9627 27.1063 12.7606 26.5962 12.6382C26.0207 12.5 25.4092 12.5 24.1863 12.5H15.5C12.6997 12.5 11.2996 12.5 10.23 13.045C9.28924 13.5243 8.52433 14.2892 8.04497 15.23C7.5 16.2996 7.5 17.6997 7.5 20.5V39.5C7.5 42.3003 7.5 43.7004 8.04497 44.77C8.52433 45.7108 9.28924 46.4757 10.23 46.955C11.2996 47.5 12.6997 47.5 15.5 47.5H44.5C47.3003 47.5 48.7004 47.5 49.77 46.955C50.7108 46.4757 51.4757 45.7108 51.955 44.77C52.5 43.7004 52.5 42.3003 52.5 39.5V25.5C52.5 22.6997 52.5 21.2996 51.955 20.23C51.4757 19.2892 50.7108 18.5243 49.77 18.045C48.7004 17.5 47.3003 17.5 44.5 17.5H35.8137C34.5908 17.5 33.9793 17.5 33.4038 17.3618C32.8937 17.2394 32.4059 17.0373 31.9586 16.7632C31.454 16.454 31.0216 16.0216 30.1569 15.1569Z" stroke="#BDBDBF" stroke-width="2" stroke-linecap="round" stroke-linejoin="round"/>
</g>
</svg>
