<svg width="120" height="120" viewBox="0 0 120 120" fill="none" xmlns="http://www.w3.org/2000/svg">
<g id="Group 1000003449">
<rect id="Rectangle 34625634" width="6.66667" height="6.66667" transform="matrix(-1 0 0 1 66.667 113.333)" fill="#BDBDBF"/>
<rect id="Rectangle 34625654" width="6.66667" height="6.66667" transform="matrix(-1 0 0 1 66.667 106.667)" fill="#BDBDBF"/>
<rect id="Rectangle 34625635" width="6.66667" height="6.66667" transform="matrix(-1 0 0 1 73.334 113.333)" fill="#BDBDBF"/>
<rect id="Rectangle 34625636" width="6.66667" height="6.66667" transform="matrix(-1 0 0 1 73.334 106.667)" fill="#BDBDBF"/>
<rect id="Rectangle 34625637" width="6.66667" height="6.66667" transform="matrix(-1 0 0 1 80 113.333)" fill="#BDBDBF"/>
<rect id="Rectangle 34625638" width="6.66667" height="6.66667" transform="matrix(-1 0 0 1 80 106.667)" fill="#BDBDBF"/>
<rect id="Rectangle 34625639" width="6.66667" height="6.66667" transform="matrix(-1 0 0 1 86.667 106.667)" fill="#BDBDBF"/>
<rect id="Rectangle 34625640" width="6.66667" height="6.66667" transform="matrix(-1 0 0 1 93.333 106.667)" fill="#BDBDBF"/>
<rect id="Rectangle 34625641" width="6.66667" height="6.66667" transform="matrix(-1 0 0 1 100 100)" fill="#BDBDBF"/>
<rect id="Rectangle 34625642" width="6.66667" height="6.66667" transform="matrix(-1 0 0 1 93.333 100)" fill="#BDBDBF"/>
<rect id="Rectangle 34625643" width="6.66667" height="6.66667" transform="matrix(-1 0 0 1 106.666 93.3335)" fill="#BDBDBF"/>
<rect id="Rectangle 34625644" width="6.66667" height="6.66667" transform="matrix(-1 0 0 1 100 93.3335)" fill="#BDBDBF"/>
<rect id="Rectangle 34625645" width="6.66667" height="6.66667" transform="matrix(-1 0 0 1 113.333 86.6665)" fill="#BDBDBF"/>
<rect id="Rectangle 34625646" width="6.66667" height="6.66667" transform="matrix(-1 0 0 1 106.666 86.6665)" fill="#BDBDBF"/>
<rect id="Rectangle 34625647" width="6.66667" height="6.66667" transform="matrix(-1 0 0 1 113.333 80)" fill="#BDBDBF"/>
<rect id="Rectangle 34625648" width="6.66667" height="6.66667" transform="matrix(-1 0 0 1 106.666 80)" fill="#BDBDBF"/>
<rect id="Rectangle 34625649" width="6.66667" height="6.66667" transform="matrix(-1 0 0 1 120 73.3335)" fill="#BDBDBF"/>
<rect id="Rectangle 34625650" width="6.66667" height="6.66667" transform="matrix(-1 0 0 1 113.333 73.3335)" fill="#BDBDBF"/>
<rect id="Rectangle 34625651" width="6.66667" height="6.66667" transform="matrix(-1 0 0 1 120 66.667)" fill="#BDBDBF"/>
<rect id="Rectangle 34625652" width="6.66667" height="6.66667" transform="matrix(-1 0 0 1 113.333 66.667)" fill="#BDBDBF"/>
<rect id="Rectangle 34625653" width="6.66667" height="6.66667" transform="matrix(-1 0 0 1 120 60)" fill="#BDBDBF"/>
<rect id="Rectangle 34625655" width="6.66667" height="6.66667" transform="matrix(-1 0 0 1 113.333 60)" fill="#BDBDBF"/>
<rect id="Rectangle 34625634_2" x="66.667" y="6.66699" width="6.66667" height="6.66667" transform="rotate(180 66.667 6.66699)" fill="#BDBDBF"/>
<rect id="Rectangle 34625654_2" x="66.667" y="13.3335" width="6.66667" height="6.66667" transform="rotate(180 66.667 13.3335)" fill="#BDBDBF"/>
<rect id="Rectangle 34625635_2" x="73.334" y="6.66699" width="6.66667" height="6.66667" transform="rotate(180 73.334 6.66699)" fill="#BDBDBF"/>
<rect id="Rectangle 34625636_2" x="73.334" y="13.3335" width="6.66667" height="6.66667" transform="rotate(180 73.334 13.3335)" fill="#BDBDBF"/>
<rect id="Rectangle 34625637_2" x="80" y="6.66699" width="6.66667" height="6.66667" transform="rotate(180 80 6.66699)" fill="#BDBDBF"/>
<rect id="Rectangle 34625638_2" x="80" y="13.3335" width="6.66667" height="6.66667" transform="rotate(180 80 13.3335)" fill="#BDBDBF"/>
<rect id="Rectangle 34625639_2" x="86.667" y="13.3335" width="6.66667" height="6.66667" transform="rotate(180 86.667 13.3335)" fill="#BDBDBF"/>
<rect id="Rectangle 34625640_2" x="93.333" y="13.3335" width="6.66667" height="6.66667" transform="rotate(180 93.333 13.3335)" fill="#BDBDBF"/>
<rect id="Rectangle 34625641_2" x="100" y="20" width="6.66667" height="6.66667" transform="rotate(180 100 20)" fill="#BDBDBF"/>
<rect id="Rectangle 34625642_2" x="93.333" y="20" width="6.66667" height="6.66667" transform="rotate(180 93.333 20)" fill="#BDBDBF"/>
<rect id="Rectangle 34625643_2" x="106.666" y="26.6665" width="6.66667" height="6.66667" transform="rotate(180 106.666 26.6665)" fill="#BDBDBF"/>
<rect id="Rectangle 34625644_2" x="100" y="26.6665" width="6.66667" height="6.66667" transform="rotate(180 100 26.6665)" fill="#BDBDBF"/>
<rect id="Rectangle 34625645_2" x="113.333" y="33.3335" width="6.66667" height="6.66667" transform="rotate(180 113.333 33.3335)" fill="#BDBDBF"/>
<rect id="Rectangle 34625646_2" x="106.666" y="33.3335" width="6.66667" height="6.66667" transform="rotate(180 106.666 33.3335)" fill="#BDBDBF"/>
<rect id="Rectangle 34625647_2" x="113.333" y="40" width="6.66667" height="6.66667" transform="rotate(180 113.333 40)" fill="#BDBDBF"/>
<rect id="Rectangle 34625648_2" x="106.666" y="40" width="6.66667" height="6.66667" transform="rotate(180 106.666 40)" fill="#BDBDBF"/>
<rect id="Rectangle 34625649_2" x="120" y="46.6665" width="6.66667" height="6.66667" transform="rotate(180 120 46.6665)" fill="#BDBDBF"/>
<rect id="Rectangle 34625650_2" x="113.333" y="46.6665" width="6.66667" height="6.66667" transform="rotate(180 113.333 46.6665)" fill="#BDBDBF"/>
<rect id="Rectangle 34625651_2" x="120" y="53.333" width="6.66667" height="6.66667" transform="rotate(180 120 53.333)" fill="#BDBDBF"/>
<rect id="Rectangle 34625652_2" x="113.333" y="53.333" width="6.66667" height="6.66667" transform="rotate(180 113.333 53.333)" fill="#BDBDBF"/>
<rect id="Rectangle 34625653_2" x="120" y="60" width="6.66667" height="6.66667" transform="rotate(180 120 60)" fill="#BDBDBF"/>
<rect id="Rectangle 34625655_2" x="113.333" y="60" width="6.66667" height="6.66667" transform="rotate(180 113.333 60)" fill="#BDBDBF"/>
<rect id="Rectangle 34625634_3" x="53.333" y="113.333" width="6.66667" height="6.66667" fill="#BDBDBF"/>
<rect id="Rectangle 34625654_3" x="53.333" y="106.667" width="6.66667" height="6.66667" fill="#BDBDBF"/>
<rect id="Rectangle 34625635_3" x="46.666" y="113.333" width="6.66667" height="6.66667" fill="#BDBDBF"/>
<rect id="Rectangle 34625636_3" x="46.666" y="106.667" width="6.66667" height="6.66667" fill="#BDBDBF"/>
<rect id="Rectangle 34625637_3" x="40" y="113.333" width="6.66667" height="6.66667" fill="#BDBDBF"/>
<rect id="Rectangle 34625638_3" x="40" y="106.667" width="6.66667" height="6.66667" fill="#BDBDBF"/>
<rect id="Rectangle 34625639_3" x="33.333" y="106.667" width="6.66667" height="6.66667" fill="#BDBDBF"/>
<rect id="Rectangle 34625640_3" x="26.667" y="106.667" width="6.66667" height="6.66667" fill="#BDBDBF"/>
<rect id="Rectangle 34625641_3" x="20" y="100" width="6.66667" height="6.66667" fill="#BDBDBF"/>
<rect id="Rectangle 34625642_3" x="26.667" y="100" width="6.66667" height="6.66667" fill="#BDBDBF"/>
<rect id="Rectangle 34625643_3" x="13.334" y="93.3335" width="6.66667" height="6.66667" fill="#BDBDBF"/>
<rect id="Rectangle 34625644_3" x="20" y="93.3335" width="6.66667" height="6.66667" fill="#BDBDBF"/>
<rect id="Rectangle 34625645_3" x="6.66699" y="86.6665" width="6.66667" height="6.66667" fill="#BDBDBF"/>
<rect id="Rectangle 34625646_3" x="13.334" y="86.6665" width="6.66667" height="6.66667" fill="#BDBDBF"/>
<rect id="Rectangle 34625647_3" x="6.66699" y="80" width="6.66667" height="6.66667" fill="#BDBDBF"/>
<rect id="Rectangle 34625648_3" x="13.334" y="80" width="6.66667" height="6.66667" fill="#BDBDBF"/>
<rect id="Rectangle 34625649_3" y="73.3335" width="6.66667" height="6.66667" fill="#BDBDBF"/>
<rect id="Rectangle 34625650_3" x="6.66699" y="73.3335" width="6.66667" height="6.66667" fill="#BDBDBF"/>
<rect id="Rectangle 34625651_3" y="66.667" width="6.66667" height="6.66667" fill="#BDBDBF"/>
<rect id="Rectangle 34625652_3" x="6.66699" y="66.667" width="6.66667" height="6.66667" fill="#BDBDBF"/>
<rect id="Rectangle 34625653_3" y="60" width="6.66667" height="6.66667" fill="#BDBDBF"/>
<rect id="Rectangle 34625655_3" x="6.66699" y="60" width="6.66667" height="6.66667" fill="#BDBDBF"/>
<rect id="Rectangle 34625634_4" width="6.66667" height="6.66667" transform="matrix(1 0 0 -1 53.333 6.66699)" fill="#BDBDBF"/>
<rect id="Rectangle 34625654_4" width="6.66667" height="6.66667" transform="matrix(1 0 0 -1 53.333 13.3335)" fill="#BDBDBF"/>
<rect id="Rectangle 34625635_4" width="6.66667" height="6.66667" transform="matrix(1 0 0 -1 46.666 6.66699)" fill="#BDBDBF"/>
<rect id="Rectangle 34625636_4" width="6.66667" height="6.66667" transform="matrix(1 0 0 -1 46.666 13.3335)" fill="#BDBDBF"/>
<rect id="Rectangle 34625637_4" width="6.66667" height="6.66667" transform="matrix(1 0 0 -1 40 6.66699)" fill="#BDBDBF"/>
<rect id="Rectangle 34625638_4" width="6.66667" height="6.66667" transform="matrix(1 0 0 -1 40 13.3335)" fill="#BDBDBF"/>
<rect id="Rectangle 34625639_4" width="6.66667" height="6.66667" transform="matrix(1 0 0 -1 33.333 13.3335)" fill="#BDBDBF"/>
<rect id="Rectangle 34625640_4" width="6.66667" height="6.66667" transform="matrix(1 0 0 -1 26.667 13.3335)" fill="#BDBDBF"/>
<rect id="Rectangle 34625641_4" width="6.66667" height="6.66667" transform="matrix(1 0 0 -1 20 20)" fill="#BDBDBF"/>
<rect id="Rectangle 34625642_4" width="6.66667" height="6.66667" transform="matrix(1 0 0 -1 26.667 20)" fill="#BDBDBF"/>
<rect id="Rectangle 34625643_4" width="6.66667" height="6.66667" transform="matrix(1 0 0 -1 13.334 26.6665)" fill="#BDBDBF"/>
<rect id="Rectangle 34625644_4" width="6.66667" height="6.66667" transform="matrix(1 0 0 -1 20 26.6665)" fill="#BDBDBF"/>
<rect id="Rectangle 34625645_4" width="6.66667" height="6.66667" transform="matrix(1 0 0 -1 6.66699 33.3335)" fill="#BDBDBF"/>
<rect id="Rectangle 34625646_4" width="6.66667" height="6.66667" transform="matrix(1 0 0 -1 13.334 33.3335)" fill="#BDBDBF"/>
<rect id="Rectangle 34625647_4" width="6.66667" height="6.66667" transform="matrix(1 0 0 -1 6.66699 40)" fill="#BDBDBF"/>
<rect id="Rectangle 34625648_4" width="6.66667" height="6.66667" transform="matrix(1 0 0 -1 13.334 40)" fill="#BDBDBF"/>
<rect id="Rectangle 34625649_4" width="6.66667" height="6.66667" transform="matrix(1 0 0 -1 0 46.6665)" fill="#BDBDBF"/>
<rect id="Rectangle 34625650_4" width="6.66667" height="6.66667" transform="matrix(1 0 0 -1 6.66699 46.6665)" fill="#BDBDBF"/>
<rect id="Rectangle 34625651_4" width="6.66667" height="6.66667" transform="matrix(1 0 0 -1 0 53.333)" fill="#BDBDBF"/>
<rect id="Rectangle 34625652_4" width="6.66667" height="6.66667" transform="matrix(1 0 0 -1 6.66699 53.333)" fill="#BDBDBF"/>
<rect id="Rectangle 34625653_4" width="6.66667" height="6.66667" transform="matrix(1 0 0 -1 0 60)" fill="#BDBDBF"/>
<rect id="Rectangle 34625655_4" width="6.66667" height="6.66667" transform="matrix(1 0 0 -1 6.66699 60)" fill="#BDBDBF"/>
</g>
</svg>
