<svg width="120" height="120" viewBox="0 0 120 120" fill="none" xmlns="http://www.w3.org/2000/svg">
<g id="Group 1000003440">
<rect id="Rectangle 34625407" x="112.001" width="8" height="8" fill="#BDBDBF"/>
<rect id="Rectangle 34625451" x="120" y="112" width="8" height="8" transform="rotate(90 120 112)" fill="#BDBDBF"/>
<rect id="Rectangle 34625409" x="104" y="7.99951" width="8" height="8" fill="#BDBDBF"/>
<rect id="Rectangle 34625452" x="112.001" y="104" width="8" height="8" transform="rotate(90 112.001 104)" fill="#BDBDBF"/>
<rect id="Rectangle 34625410" x="96" y="16.0005" width="8" height="8" fill="#BDBDBF"/>
<rect id="Rectangle 34625453" x="104" y="96" width="8" height="8" transform="rotate(90 104 96)" fill="#BDBDBF"/>
<rect id="Rectangle 34625411" x="88.001" y="24" width="8" height="8" fill="#BDBDBF"/>
<rect id="Rectangle 34625454" x="96" y="88" width="8" height="8" transform="rotate(90 96 88)" fill="#BDBDBF"/>
<rect id="Rectangle 34625412" x="80.001" y="32" width="8" height="8" fill="#BDBDBF"/>
<rect id="Rectangle 34625455" x="88.001" y="80" width="8" height="8" transform="rotate(90 88.001 80)" fill="#BDBDBF"/>
<rect id="Rectangle 34625413" x="72.001" y="40" width="8" height="8" fill="#BDBDBF"/>
<rect id="Rectangle 34625456" x="80.001" y="72" width="8" height="8" transform="rotate(90 80.001 72)" fill="#BDBDBF"/>
<rect id="Rectangle 34625414" x="64.001" y="48" width="8" height="8" fill="#BDBDBF"/>
<rect id="Rectangle 34625457" x="72.001" y="64" width="8" height="8" transform="rotate(90 72.001 64)" fill="#BDBDBF"/>
<rect id="Rectangle 34625415" x="56" y="56" width="8" height="8" fill="#BDBDBF"/>
<rect id="Rectangle 34625458" x="64.001" y="56" width="8" height="8" transform="rotate(90 64.001 56)" fill="#BDBDBF"/>
<rect id="Rectangle 34625416" x="47.999" y="64" width="8" height="8" fill="#BDBDBF"/>
<rect id="Rectangle 34625459" x="56" y="48" width="8" height="8" transform="rotate(90 56 48)" fill="#BDBDBF"/>
<rect id="Rectangle 34625417" x="40" y="72" width="8" height="8" fill="#BDBDBF"/>
<rect id="Rectangle 34625460" x="47.999" y="40" width="8" height="8" transform="rotate(90 47.999 40)" fill="#BDBDBF"/>
<rect id="Rectangle 34625418" x="32" y="80" width="8" height="8" fill="#BDBDBF"/>
<rect id="Rectangle 34625461" x="40" y="32" width="8" height="8" transform="rotate(90 40 32)" fill="#BDBDBF"/>
<rect id="Rectangle 34625419" x="24" y="88" width="8" height="8" fill="#BDBDBF"/>
<rect id="Rectangle 34625462" x="32" y="24" width="8" height="8" transform="rotate(90 32 24)" fill="#BDBDBF"/>
<rect id="Rectangle 34625420" x="16.001" y="96" width="8" height="8" fill="#BDBDBF"/>
<rect id="Rectangle 34625463" x="24" y="16.0005" width="8" height="8" transform="rotate(90 24 16.0005)" fill="#BDBDBF"/>
<rect id="Rectangle 34625421" x="8" y="104" width="8" height="8" fill="#BDBDBF"/>
<rect id="Rectangle 34625464" x="16.001" y="7.99951" width="8" height="8" transform="rotate(90 16.001 7.99951)" fill="#BDBDBF"/>
<rect id="Rectangle 34625422" y="112" width="8" height="8" fill="#BDBDBF"/>
<rect id="Rectangle 34625465" x="8" width="8" height="8" transform="rotate(90 8 0)" fill="#BDBDBF"/>
<rect id="Rectangle 34625423" x="16.001" y="104" width="8" height="8" fill="#BDBDBF"/>
<rect id="Rectangle 34625466" x="16.001" y="16.0005" width="8" height="8" transform="rotate(90 16.001 16.0005)" fill="#BDBDBF"/>
<rect id="Rectangle 34625450" x="8" y="112" width="8" height="8" fill="#BDBDBF"/>
<rect id="Rectangle 34625467" x="8" y="7.99951" width="8" height="8" transform="rotate(90 8 7.99951)" fill="#BDBDBF"/>
<rect id="Rectangle 34625436" y="104" width="8" height="8" fill="#BDBDBF"/>
<rect id="Rectangle 34625468" x="16.001" width="8" height="8" transform="rotate(90 16.001 0)" fill="#BDBDBF"/>
<rect id="Rectangle 34625437" x="24" y="96" width="8" height="8" fill="#BDBDBF"/>
<rect id="Rectangle 34625469" x="24" y="24" width="8" height="8" transform="rotate(90 24 24)" fill="#BDBDBF"/>
<rect id="Rectangle 34625440" x="40" y="80" width="8" height="8" fill="#BDBDBF"/>
<rect id="Rectangle 34625470" x="40" y="40" width="8" height="8" transform="rotate(90 40 40)" fill="#BDBDBF"/>
<rect id="Rectangle 34625442" x="56" y="64" width="8" height="8" fill="#BDBDBF"/>
<rect id="Rectangle 34625471" x="56" y="56" width="8" height="8" transform="rotate(90 56 56)" fill="#BDBDBF"/>
<rect id="Rectangle 34625444" x="72.001" y="48" width="8" height="8" fill="#BDBDBF"/>
<rect id="Rectangle 34625472" x="72.001" y="72" width="8" height="8" transform="rotate(90 72.001 72)" fill="#BDBDBF"/>
<rect id="Rectangle 34625446" x="88.001" y="32" width="8" height="8" fill="#BDBDBF"/>
<rect id="Rectangle 34625473" x="88.001" y="88" width="8" height="8" transform="rotate(90 88.001 88)" fill="#BDBDBF"/>
<rect id="Rectangle 34625448" x="104" y="16.0005" width="8" height="8" fill="#BDBDBF"/>
<rect id="Rectangle 34625474" x="104" y="104" width="8" height="8" transform="rotate(90 104 104)" fill="#BDBDBF"/>
<rect id="Rectangle 34625438" x="8" y="96" width="8" height="8" fill="#BDBDBF"/>
<rect id="Rectangle 34625475" x="24" y="7.99951" width="8" height="8" transform="rotate(90 24 7.99951)" fill="#BDBDBF"/>
<rect id="Rectangle 34625439" x="24" y="80" width="8" height="8" fill="#BDBDBF"/>
<rect id="Rectangle 34625476" x="40" y="24" width="8" height="8" transform="rotate(90 40 24)" fill="#BDBDBF"/>
<rect id="Rectangle 34625441" x="40" y="64" width="8" height="8" fill="#BDBDBF"/>
<rect id="Rectangle 34625477" x="56" y="40" width="8" height="8" transform="rotate(90 56 40)" fill="#BDBDBF"/>
<rect id="Rectangle 34625443" x="56" y="48" width="8" height="8" fill="#BDBDBF"/>
<rect id="Rectangle 34625478" x="72.001" y="56" width="8" height="8" transform="rotate(90 72.001 56)" fill="#BDBDBF"/>
<rect id="Rectangle 34625445" x="72.001" y="32" width="8" height="8" fill="#BDBDBF"/>
<rect id="Rectangle 34625479" x="88.001" y="72" width="8" height="8" transform="rotate(90 88.001 72)" fill="#BDBDBF"/>
<rect id="Rectangle 34625447" x="88.001" y="16.0005" width="8" height="8" fill="#BDBDBF"/>
<rect id="Rectangle 34625480" x="104" y="88" width="8" height="8" transform="rotate(90 104 88)" fill="#BDBDBF"/>
<rect id="Rectangle 34625449" x="104" width="8" height="8" fill="#BDBDBF"/>
<rect id="Rectangle 34625481" x="120" y="104" width="8" height="8" transform="rotate(90 120 104)" fill="#BDBDBF"/>
<rect id="Rectangle 34625425" x="32" y="88" width="8" height="8" fill="#BDBDBF"/>
<rect id="Rectangle 34625482" x="32" y="32" width="8" height="8" transform="rotate(90 32 32)" fill="#BDBDBF"/>
<rect id="Rectangle 34625427" x="47.999" y="72" width="8" height="8" fill="#BDBDBF"/>
<rect id="Rectangle 34625483" x="47.999" y="48" width="8" height="8" transform="rotate(90 47.999 48)" fill="#BDBDBF"/>
<rect id="Rectangle 34625429" x="64.001" y="56" width="8" height="8" fill="#BDBDBF"/>
<rect id="Rectangle 34625484" x="64.001" y="64" width="8" height="8" transform="rotate(90 64.001 64)" fill="#BDBDBF"/>
<rect id="Rectangle 34625431" x="80.001" y="40" width="8" height="8" fill="#BDBDBF"/>
<rect id="Rectangle 34625485" x="80.001" y="80" width="8" height="8" transform="rotate(90 80.001 80)" fill="#BDBDBF"/>
<rect id="Rectangle 34625433" x="96" y="24" width="8" height="8" fill="#BDBDBF"/>
<rect id="Rectangle 34625486" x="96" y="96" width="8" height="8" transform="rotate(90 96 96)" fill="#BDBDBF"/>
<rect id="Rectangle 34625435" x="112.001" y="7.99951" width="8" height="8" fill="#BDBDBF"/>
<rect id="Rectangle 34625487" x="112.001" y="112" width="8" height="8" transform="rotate(90 112.001 112)" fill="#BDBDBF"/>
<rect id="Rectangle 34625424" x="16.001" y="88" width="8" height="8" fill="#BDBDBF"/>
<rect id="Rectangle 34625488" x="32" y="16.0005" width="8" height="8" transform="rotate(90 32 16.0005)" fill="#BDBDBF"/>
<rect id="Rectangle 34625426" x="32" y="72" width="8" height="8" fill="#BDBDBF"/>
<rect id="Rectangle 34625489" x="47.999" y="32" width="8" height="8" transform="rotate(90 47.999 32)" fill="#BDBDBF"/>
<rect id="Rectangle 34625428" x="47.999" y="56" width="8" height="8" fill="#BDBDBF"/>
<rect id="Rectangle 34625490" x="64.001" y="48" width="8" height="8" transform="rotate(90 64.001 48)" fill="#BDBDBF"/>
<rect id="Rectangle 34625430" x="64.001" y="40" width="8" height="8" fill="#BDBDBF"/>
<rect id="Rectangle 34625491" x="80.001" y="64" width="8" height="8" transform="rotate(90 80.001 64)" fill="#BDBDBF"/>
<rect id="Rectangle 34625432" x="80.001" y="24" width="8" height="8" fill="#BDBDBF"/>
<rect id="Rectangle 34625492" x="96" y="80" width="8" height="8" transform="rotate(90 96 80)" fill="#BDBDBF"/>
<rect id="Rectangle 34625434" x="96" y="7.99951" width="8" height="8" fill="#BDBDBF"/>
<rect id="Rectangle 34625493" x="112.001" y="96" width="8" height="8" transform="rotate(90 112.001 96)" fill="#BDBDBF"/>
</g>
</svg>
