<svg width="24" height="23" viewBox="0 0 24 23" fill="none" xmlns="http://www.w3.org/2000/svg">
<path d="M8 11.9792L10.5 14.375L16 8.625M7.2 19.1667H16.8C17.9201 19.1667 18.4802 19.1667 18.908 18.9578C19.2843 18.774 19.5903 18.4808 19.782 18.1201C20 17.7102 20 17.1734 20 16.1V6.9C20 5.82657 20 5.28985 19.782 4.87985C19.5903 4.51921 19.2843 4.226 18.908 4.04224C18.4802 3.83333 17.9201 3.83333 16.8 3.83333H7.2C6.0799 3.83333 5.51984 3.83333 5.09202 4.04224C4.71569 4.226 4.40973 4.51921 4.21799 4.87985C4 5.28985 4 5.82657 4 6.9V16.1C4 17.1734 4 17.7102 4.21799 18.1201C4.40973 18.4808 4.71569 18.774 5.09202 18.9578C5.51984 19.1667 6.07989 19.1667 7.2 19.1667Z" stroke="black" stroke-width="1.5" stroke-linecap="round" stroke-linejoin="round"/>
</svg>
